# xmcd CD database file
#
# Track frame offsets:
#	150
#	19148
#	38857
#	70178
#	92597
#	112278
#	126087
#	154907
#	166946
#	181646
#	205848
#	225890
#	257134
#	280378
#	298610
#	316974
#	334516
#
# Disc length: 4693 seconds
#
# Revision: 0
# Processed by: cddbd v1.5.1PL0 Copyright (c) Steve Scherf et al.
# Submitted via: CDex 1.51
#
DISCID=ea125311
DTITLE=2004 Universal Music Ltd. - Dreamlike coffee language(梦幻咖啡)
DYEAR=2004
DGENRE=Jazz
TTITLE0=The Key To The Paradiso 天堂的钥匙
TTITLE1=Roam About The Street 漫步街头
TTITLE2=Parting 别离
TTITLE3=Journey 路途
TTITLE4=Time Gear 时间齿轮
TTITLE5=Desire Of The Meteor 流星的愿望
TTITLE6=A Cup Of Coffee,Please 请来杯咖啡
TTITLE7=The Sad Letter 悲伤的信件
TTITLE8=Measuring Love 爱的标尺
TTITLE9=Hydrangea 雪绒花
TTITLE10=Up On The Moon 爬上月亮
TTITLE11=The Midnight 午夜
TTITLE12=The Jazz Player In The Cafe 咖啡馆里的爵士乐手
TTITLE13=Cafes In September 九月的咖啡馆
TTITLE14=A Letter Along With Petals Of Roses 玫瑰花瓣的信
TTITLE15=The Train Of Memory 回忆的列车
TTITLE16=Black And White Waitz 黑白圆舞曲
EXTD=YEAR: 2004
EXTT0=
EXTT1=
EXTT2=
EXTT3=
EXTT4=
EXTT5=
EXTT6=
EXTT7=
EXTT8=
EXTT9=
EXTT10=
EXTT11=
EXTT12=
EXTT13=
EXTT14=
EXTT15=
EXTT16=
PLAYORDER=
